<?xml version="1.0" standalone="no"?>
<!DOCTYPE svg PUBLIC "-//W3C//DTD SVG 1.1//EN" "http://www.w3.org/Graphics/SVG/1.1/DTD/svg11.dtd" >
<svg xmlns="http://www.w3.org/2000/svg">
<metadata>
Created by FontForge 20120731 at Mon Jul  4 14:28:58 2016
 By admin
</metadata>
<defs>
<font id="iconfont" horiz-adv-x="1024" >
  <font-face 
    font-family="iconfont"
    font-weight="500"
    font-stretch="normal"
    units-per-em="1024"
    panose-1="2 0 6 3 0 0 0 0 0 0"
    ascent="896"
    descent="-128"
    x-height="792"
    bbox="0 -128 3919 896"
    underline-thickness="50"
    underline-position="-100"
    unicode-range="U+0078-E62B"
  />
<missing-glyph horiz-adv-x="374" 
d="M34 0v682h272v-682h-272zM68 34h204v614h-204v-614z" />
    <glyph glyph-name=".notdef" horiz-adv-x="374" 
d="M34 0v682h272v-682h-272zM68 34h204v614h-204v-614z" />
    <glyph glyph-name=".null" horiz-adv-x="0" 
 />
    <glyph glyph-name="nonmarkingreturn" horiz-adv-x="341" 
 />
    <glyph glyph-name="x" unicode="x" horiz-adv-x="1001" 
d="M281 543q-27 -1 -53 -1h-83q-18 0 -36.5 -6t-32.5 -18.5t-23 -32t-9 -45.5v-76h912v41q0 16 -0.5 30t-0.5 18q0 13 -5 29t-17 29.5t-31.5 22.5t-49.5 9h-133v-97h-438v97zM955 310v-52q0 -23 0.5 -52t0.5 -58t-10.5 -47.5t-26 -30t-33 -16t-31.5 -4.5q-14 -1 -29.5 -0.5
t-29.5 0.5h-32l-45 128h-439l-44 -128h-29h-34q-20 0 -45 1q-25 0 -41 9.5t-25.5 23t-13.5 29.5t-4 30v167h911zM163 247q-12 0 -21 -8.5t-9 -21.5t9 -21.5t21 -8.5q13 0 22 8.5t9 21.5t-9 21.5t-22 8.5zM316 123q-8 -26 -14 -48q-5 -19 -10.5 -37t-7.5 -25t-3 -15t1 -14.5
t9.5 -10.5t21.5 -4h37h67h81h80h64h36q23 0 34 12t2 38q-5 13 -9.5 30.5t-9.5 34.5q-5 19 -11 39h-368zM336 498v228q0 11 2.5 23t10 21.5t20.5 15.5t34 6h188q31 0 51.5 -14.5t20.5 -52.5v-227h-327z" />
    <glyph glyph-name="uniE600" unicode="&#xe600;" 
d="M957 522h-199q-19 0 -32.5 13.5t-13.5 32.5t13.5 32.5t32.5 13.5h80q-55 79 -141 124t-185 45q-108 0 -200 -53.5t-145.5 -145.5t-53.5 -200t53.5 -200t145.5 -145.5t200 -53.5t200 53.5t145.5 145.5t53.5 200q0 19 13.5 32.5t33 13.5t33 -13.5t13.5 -32.5
q0 -100 -39 -191t-105 -157t-157 -105t-191 -39t-191 39t-157 105t-105 157t-39 191t39 191t105 157t157 105t191 39q121 0 226 -55.5t173 -150.5v83q0 19 13.5 32.5t33 13.5t33 -13.5t13.5 -32.5v-185q0 -19 -13.5 -32.5t-33.5 -13.5z" />
    <glyph glyph-name="uniE601" unicode="&#xe601;" 
d="M512 876q-100 0 -191 -39t-157 -105t-105 -157t-39 -191t39 -191t105 -157t157 -105t191 -39t191 39t157 105t105 157t39 191t-39 191t-105 157t-157 105t-191 39zM512 -15q-108 0 -200 53.5t-145.5 145.5t-53.5 200t53.5 200t145.5 145.5t200 53.5t200 -53.5
t145.5 -145.5t53.5 -200t-53.5 -200t-145.5 -145.5t-200 -53.5zM712 338h-154v-154q0 -19 -13.5 -32.5t-32.5 -13.5t-32.5 13.5t-13.5 32.5v154h-154q-19 0 -32.5 13.5t-13.5 32.5t13.5 32.5t32.5 13.5h154v154q0 19 13.5 32.5t32.5 13.5t32.5 -13.5t13.5 -32.5v-154h154
q19 0 32.5 -13.5t13.5 -32.5t-13.5 -32.5t-32.5 -13.5z" />
    <glyph glyph-name="uniE602" unicode="&#xe602;" 
d="M957 -76h-890q-20 0 -33.5 13.5t-13.5 32.5t13.5 32.5t33.5 13.5h890q20 0 33.5 -13.5t13.5 -32.5t-13.5 -32.5t-33.5 -13.5zM771 607l-130 130l97 97q14 13 33 13t32 -13l65 -65q13 -13 13 -32t-13 -33zM349 187l-130 129l389 388l130 -129zM143 111l44 173l129 -130z
" />
    <glyph glyph-name="uniE604" unicode="&#xe604;" 
d="M717 538v-461h-410v461h-102v-564h614v564h-102zM410 435h51v-256h-51v256zM563 435h51v-256h-51v256zM870 640h-51v154h-614v-154h-51q-22 0 -37 -15t-15 -36t15 -36t37 -15h716q22 0 37 15t15 36t-15 36t-37 15zM717 640h-410v51h410v-51z" />
    <glyph glyph-name="uniE605" unicode="&#xe605;" 
d="M768 794h-512l-256 -436l256 -435h512l256 435zM722 -12h-420l-210 370l210 371h420l209 -371zM693 544l-253 -254l-109 109q-15 15 -36 15t-36 -15t-15 -36t15 -36l108 -109l73 -72l325 325zM765 544q15 -15 15 -36.5t-15 -36.5t-36 -15t-36 15t-15 36.5t15 36.5t36 15
t36 -15z" />
    <glyph glyph-name="uniE606" unicode="&#xe606;" 
d="M51 742h922v-102h-922v102zM51 435h922v-102h-922v102zM51 128h922v-102h-922v102z" />
    <glyph glyph-name="uniE607" unicode="&#xe607;" 
d="M768 794h-512l-256 -436l256 -435h512l256 435zM722 -12h-420l-210 370l210 371h420l209 -371zM309 333h-1h-1q-21 0 -36 15t-15 36t15 36t36 15v0h410q21 0 36 -15t15 -36t-15 -36t-36 -15h-1h-1h-406z" />
    <glyph glyph-name="uniE608" unicode="&#xe608;" 
d="M865 15h-706q-19 0 -32.5 13.5t-13.5 32.5v231q0 19 13.5 32.5t32.5 13.5t32.5 -13.5t13.5 -32.5v-184h614v184q0 19 13.5 32.5t32.5 13.5t32.5 -13.5t13.5 -32.5v-231q0 -19 -13.5 -32.5t-32.5 -13.5zM650 507q-20 0 -34 15l-58 64v-279q0 -19 -13.5 -32.5t-32.5 -13.5
t-32.5 13.5t-13.5 32.5v279l-58 -64q-14 -15 -34 -15q-19 0 -32.5 13.5t-13.5 32.5q0 18 12 31l138 153q14 16 34 16t34 -16l138 -153q12 -13 12 -31q0 -19 -13.5 -32.5t-32.5 -13.5z" />
    <glyph glyph-name="uniE609" unicode="&#xe609;" 
d="M865 15h-353v0h-353q-19 0 -32.5 13.5t-13.5 32.5v231q0 19 13.5 32.5t32.5 13.5t32.5 -13.5t13.5 -32.5v-184h614v184q0 19 13.5 32.5t32.5 13.5t32.5 -13.5t13.5 -32.5v-231q0 -19 -13.5 -32.5t-32.5 -13.5zM684 430l-138 -154q-14 -15 -34 -15t-34 15l-138 154
q-12 13 -12 31q0 19 13.5 32.5t32.5 13.5q20 0 34 -15l58 -65v280q0 19 13.5 32.5t32.5 13.5t32.5 -13.5t13.5 -32.5v-280l58 65q14 15 34 15q19 0 32.5 -13.5t13.5 -32.5q0 -18 -12 -31z" />
    <glyph glyph-name="uniE60B" unicode="&#xe60b;" 
d="M977 50l-271 270q52 87 52 187t-49.5 185t-134.5 134.5t-185 49.5t-185 -49.5t-134.5 -134.5t-49.5 -185t49.5 -185t134.5 -134.5t185 -49.5t187 52l270 -270q27 -27 65 -27t65 27t27.5 65t-26.5 65zM389.5 230q-114.5 0 -195.5 81t-81 195.5t81 195.5t195.5 81
t195.5 -81t81 -195.5t-81 -195.5t-195.5 -81z" />
    <glyph glyph-name="uniE612" unicode="&#xe612;" horiz-adv-x="1047" 
d="M881 281q-50 -115 -157 -179l-28 -16q-2 0 -4 -1t-4.5 -2t-3.5 -2q-16 -7 -23 -10q-2 0 -14 -4q-16 -6 -23 -8q-1 0 -12 -2q-16 -4 -27 -6q-2 0 -7 -1q-18 -2 -32 -3h-2q-56 -3 -110 10h-2q-16 4 -33 10q-1 1 -3.5 1.5t-3.5 1.5q-128 46 -200 161l88 54l-269 123
l-10 -295l87 54q83 -135 229 -200q1 0 2 -0.5t2 -1.5q6 -2 28 -10q2 -1 5.5 -2.5t5.5 -1.5q18 -6 42 -13h2q1 0 2 -1q70 -16 143 -13h4q19 2 41 5q2 0 5.5 0.5t5.5 0.5q15 2 34 7q11 2 17 4q11 3 29 9q15 5 19 7q1 0 4 1t4 1q6 2 27 12q1 1 4.5 2t4.5 2q26 13 45 25
q137 84 201 232q10 24 0.5 47.5t-32.5 33.5q-24 10 -47.5 0.5t-33.5 -32.5zM960 601q-83 135 -229 200l-1 1q-2 1 -3 1q-11 4 -34 13h-1q-2 1 -3 1q-117 40 -238 22h-3q-3 0 -4 -1q-16 -2 -38 -7q-10 -2 -13 -3q-13 -4 -32 -10q-13 -5 -17 -6q-2 -1 -4.5 -1.5t-4.5 -1.5
q-4 -2 -12 -5.5t-10 -4.5q-1 0 -6.5 -3t-9.5 -4q-15 -8 -35 -20q-1 0 -3.5 -1.5t-3.5 -1.5v-1h-1q-136 -84 -200 -232q-10 -23 -1 -47t32.5 -34t47.5 -0.5t34 32.5q49 114 155 179q15 9 30 16q2 1 3.5 1.5t3.5 1.5t3 1q15 7 25 11q2 1 12 4q15 5 26 8q2 1 4.5 1.5t3.5 0.5
q17 4 31 6l1 1h2q93 13 182 -17h1h1q131 -46 204 -164l-87 -54l268 -123l11 295zM473 384q0 64 15 109t36 45q-35 0 -70.5 -8.5t-65 -22t-56.5 -30t-48 -33t-36 -30t-23.5 -22t-7.5 -8.5q5 -6 15.5 -16.5t43 -37t67 -46.5t84 -37t97.5 -17q-21 0 -36 45t-15 109zM524 538
q21 0 36 -45t15 -109t-15 -109t-36 -45q47 0 96 16t85.5 38.5t66 45t44.5 38.5l15 16q-6 6 -16 16.5t-43 37t-67 46.5t-84 37t-97 17z" />
    <glyph glyph-name="uniE613" unicode="&#xe613;" 
d="M0 896v-1024h563l-4 102h-457v154h253l51 102h-304v103h304v102h-304v103h360l50 102h-410v154h615v-51l102 1v152h-819zM916 202q0 -3 1.5 -8.5t7 -21t14 -28.5t25 -27.5t37.5 -21.5q3 -1 6.5 -2t10 -7t6.5 -15.5t-5 -14t-11 -4.5h-5h-175q-14 -35 -44 -56.5t-67 -21.5
t-67.5 21.5t-44.5 56.5h-175q-2 -1 -5.5 -0.5t-9 5t-5.5 14t5.5 15.5t11.5 7l5 2q21 7 37.5 21.5t25 28t14 27.5t7.5 21.5t2 8.5q-1 180 0 223q1 92 122 134q0 34 23 57.5t56 23.5t56 -24t23 -58v0q117 -43 118 -133q1 -46 0 -223z" />
    <glyph glyph-name="uniE614" unicode="&#xe614;" 
d="M921 77q28 0 46.5 1t22.5 2l4 1q4 0 8.5 0.5t13 7t8.5 19.5t-8 21.5t-17 9.5l-8 2q-29 11 -52.5 30.5t-35.5 38.5t-20 38.5t-10 29.5t-2 12q1 244 0 309q-2 124 -168 183v1q0 47 -32.5 80t-78.5 33q-30 0 -54.5 -14t-40.5 -38q-2 -4 3.5 -5t15.5 -2t23 -2.5t26 -7t24 -15
t18 -27.5t7 -43q0 -12 11.5 -19t28.5 -9.5t37 -12t37 -25.5t28.5 -51.5t11.5 -87.5v-204q0 -24 25 -85t62.5 -116t65.5 -55zM717 187q1 -4 2.5 -12t10 -29t20 -39t35 -38t53.5 -30q3 -1 8.5 -2t14.5 -9.5t9 -21.5q-1 -28 -29 -27h-248q-20 -48 -62.5 -77.5t-95 -29.5
t-95.5 29.5t-62 77.5h-248h-8q-5 0 -13.5 7t-8.5 20t9 21.5t14.5 9.5t9.5 2q86 31 115 125l5 23q-1 249 0 309q1 37 16.5 68.5t42 53.5t54.5 37t61 27q0 46 32.5 79t78.5 33t79 -33.5t33 -79.5v-1q165 -60 167 -184q1 -13 1 -37v-53v-58v-60v-50v-37z" />
    <glyph glyph-name="uniE618" unicode="&#xe618;" 
d="M205 262h614v-49h-614v49zM614 701h205v-49h-205v49zM614 555h205v-49h-205v49zM614 408h205v-48h-205v48zM205 116h614v-49h-614v49zM870 896h-716q-43 0 -73 -28.5t-30 -69.5v-828q0 -41 30 -69.5t73 -28.5h716q43 0 73 28.5t30 69.5v828q0 41 -30 69.5t-73 28.5z
M870 67q0 -40 -30 -68.5t-72 -28.5h-512q-42 0 -72 28.5t-30 68.5v634q0 40 30 68.5t72 28.5h6v-316v-5v-25q0 -9 2.5 -28t7 -32t13.5 -30t22 -27t33.5 -17t46.5 -7t46.5 7t33.5 17.5t22 27.5t13.5 30t7 32t2.5 29v23v5v190h-83v-190q0 -6 0.5 -18.5t0.5 -19.5t-1.5 -16.5
t-6 -15t-13 -9t-22 -3.5t-22.5 4t-13 10t-6 16.5t-2 17.5t1 18.5t1 15.5q-7 0 -19.5 -0.5t-24.5 -0.5t-26 1h70v316h422q42 0 72 -28.5t30 -68.5v-634z" />
    <glyph glyph-name="uniE619" unicode="&#xe619;" 
d="M870 896h-716q-43 0 -73 -28.5t-30 -69.5v-828q0 -41 30 -69.5t73 -28.5h716q43 0 73 28.5t30 69.5v828q0 41 -30 69.5t-73 28.5zM870 67q0 -40 -30 -68.5t-72 -28.5h-512q-42 0 -72 28.5t-30 68.5v634q0 40 30 68.5t72 28.5h512q42 0 72 -28.5t30 -68.5v-634zM318 412
q16 21 34 40t50 46t62 41t66.5 14t68.5 -22q21 -15 15 -49.5t-28.5 -75t-52.5 -87.5t-56.5 -86.5t-41 -72t-6.5 -43.5q12 -18 42 -19.5t66.5 19t61.5 59.5q-6 -44 -34 -79.5t-65 -53t-75 -24t-68 3.5t-39 34q-11 26 -11.5 51.5t8 49t21.5 46t32.5 48t38 49t41 54t38.5 57.5
q31 52 -25 51q-53 -2 -120 -37q-15 -7 -23 -14zM512 676.5q0 30.5 22.5 52t54.5 21.5t54.5 -21.5t22.5 -52t-22.5 -52t-54.5 -21.5t-54.5 21.5t-22.5 52z" />
    <glyph glyph-name="uniE61A" unicode="&#xe61a;" horiz-adv-x="1025" 
d="M603 540q26 32 40 76q14 45 14 95q39 -15 51.5 -28t12.5 -37q0 -41 -20 -81q-20 -39 -41 -39q-8 0 -22 3q-13 3 -35 11zM201 95q-61 77 -87 145q-27 68 -27 145q0 83 32 161t92 138t138 92q78 33 162 33q85 0 162 -32q76 -32 137 -93q60 -59 93 -137q32 -78 32 -162
q0 -83 -32.5 -162t-92.5 -138q-60 -60 -138 -92t-161 -32q-102 0 -163 32q-62 33 -62 86q0 12 4 23q4 10 14 23q9 -9 17 -13q7 -4 13 -4q9 0 29 16q19 16 38 41q16 22 27 48q11 27 11 34q0 5 -13 21q-13 15 -13 31q0 22 12 57q13 36 35 83q28 55 44 77q17 22 35 28q4 2 14 3
q30 3 45 26q15 24 25 61q10 36 10 62q0 21 -6 28q-7 7 -28 7q-32 0 -55 -4q-24 -5 -35 -14q-15 -11 -47 -51q-33 -42 -65 -93q-61 -95 -100 -203q-39 -107 -39 -161q0 -11 5 -23q2 -13 1.5 -18t-4 -23.5t-5.5 -29.5q-14 -47 -9.5 -83t28.5 -62.5t54 -44.5t66.5 -28.5
t65.5 -15.5t51 -5q63 0 121.5 15t102.5 38t83.5 54t65.5 60.5t48 61t33 51.5t17 36q22 37 32.5 87t9.5 106.5t-16 116.5t-41 117t-69.5 108t-97.5 89.5t-128.5 61t-160.5 21.5q-98 0 -190.5 -36.5t-163.5 -101.5t-114 -162.5t-43 -210.5q0 -69 14 -129.5t36.5 -100.5t40 -63
t34.5 -38q18 -13 37.5 -9.5t32.5 20t6 31.5zM357 93q39 28 66 65q25 36 36 81q28 -19 38 -30q9 -11 9 -23q0 -32 -32 -75t-61 -43q-9 0 -23 6.5t-33 18.5z" />
    <glyph glyph-name="uniE61B" unicode="&#xe61b;" 
d="M845 486h-51q-21 0 -38 3.5t-29 7.5t-21.5 13t-15.5 15.5t-10.5 20t-6.5 21.5t-3 24.5t-1 24.5v26q0 14 18 33.5t45 39.5t54 42t48.5 41.5t25.5 38t-12.5 31.5t-68.5 20.5t-139 7.5h-307q-53 0 -87.5 -5.5t-51 -14t-16 -24.5t6 -28t26.5 -34t35 -34t41 -35l30 -25
q10 -9 23 -21t18.5 -20.5t5.5 -14.5v-16v-30q0 -10 -1 -25.5t-3.5 -22.5t-7 -18t-11 -15.5t-16.5 -11t-23.5 -9t-31 -4.5t-40.5 -2h-51q-42 0 -72 -30t-30 -72v-410q0 -42 30 -72t72 -30h666q42 0 72 30t30 72v410q0 42 -30 72t-72 30zM845 77q0 -43 -30 -73t-73 -30h-460
q-43 0 -73 30t-30 73v205q0 40 32 71t67 31h52q23 0 52.5 36.5t50.5 83t24 78.5q3 38 -5 69.5t-25.5 54.5t-33 38t-35.5 30t-25 20q-45 42 161 40h16h16q170 0 181 -23q5 -8 -9 -20q-8 -7 -30.5 -23t-36.5 -29t-30.5 -34.5t-25 -52t-8.5 -69.5q0 -25 20.5 -73t50.5 -87
t51 -39h43q49 0 81 -29.5t32 -72.5v-205zM624 353l72 -72l-282 -282l-72 72zM626 11l-276 276l70 70l276 -276z" />
    <glyph glyph-name="uniE61C" unicode="&#xe61c;" 
d="M845 486h-51q-21 0 -38 3.5t-29 7.5t-21.5 13t-16 15.5t-10.5 20t-6 21.5t-3 24.5t-1 24.5v26q0 14 18 33.5t45 39.5t54 42t48.5 41.5t25 38t-12.5 31.5t-68 20.5t-139 7.5h-307q-53 0 -87.5 -5.5t-51 -14t-16 -24.5t6 -28t26.5 -34t35 -34t41 -35l30 -25q10 -9 23 -21
t18.5 -20.5t5.5 -14.5v-16v-30q0 -10 -1 -25.5t-3.5 -22.5t-7 -18t-11 -15.5t-16.5 -11t-23.5 -9t-31 -4.5t-40.5 -2h-51q-42 0 -72 -30t-30 -72v-410q0 -42 30 -72t72 -30h666q42 0 72 30t30 72v410q0 42 -30 72t-72 30zM845 77q0 -43 -30 -73t-73 -30h-460q-43 0 -73 30
t-30 73v205q0 40 32 71t67 31h52q23 0 52.5 36.5t50.5 83t24 78.5q3 38 -5 69.5t-25.5 54.5t-33 38t-35.5 30t-25 20q-45 42 161 40h16h16q170 0 181 -23q5 -8 -9 -20q-8 -7 -30.5 -23t-36.5 -29t-30.5 -34.5t-25.5 -52t-9 -69.5q0 -25 21 -73t51 -87t51 -39h42
q50 0 82 -29.5t32 -72.5v-205zM295 173l72 71l173 -173l-71 -72zM679 353l72 -72l-282 -282l-72 71z" />
    <glyph glyph-name="uniE61D" unicode="&#xe61d;" 
d="M186 492h419v-69h-419v69zM186 354h349v-69h-349v69zM722 179l-134 60l-41 -176l50 -23zM978.5 829.5q-30.5 13.5 -62.5 3t-47 -39.5l-20 -39l146 -66l20 39q15 29 4.5 59t-41 43.5zM978 655l-146 66l-237 -456l145 -66zM727 181l-129 -145l-56 25l42 178h4h-4l1 6z
M723 84v-65q0 -23 -17 -39.5t-40 -16.5h-135l52 58l-47 22l-19 -80h-368q-24 0 -40.5 16.5t-16.5 39.5v730q0 23 16.5 39.5t40.5 16.5h517q23 0 40 -16.5t17 -39.5v-91l91 106v76q0 23 -16.5 39.5t-39.5 16.5h-701q-24 0 -40.5 -16.5t-16.5 -39.5v-912q0 -23 16.5 -39.5
t40.5 -16.5h701q23 0 39.5 16.5t16.5 39.5v262zM591 232l-39 -166l44 -20l117 131zM186 630h466v-69h-466v69zM186 216h303v-68h-303v68z" />
    <glyph glyph-name="uniE61E" unicode="&#xe61e;" 
d="M831 896h-638q-37 0 -64 -28.5t-27 -69.5v-828q0 -41 27 -69.5t64 -28.5h638q37 0 64 28.5t27 69.5v828q0 41 -27 69.5t-64 28.5zM831 67q0 -40 -27 -68.5t-64 -28.5h-456q-37 0 -64 28.5t-27 68.5v634q0 40 27 68.5t64 28.5h456q37 0 64 -28.5t27 -68.5v-634zM547 440
q9 15 19 29.5t29 34.5t37.5 30.5t42.5 10.5t47 -17q22 -16 11 -63t-35 -95t-41.5 -93t-8.5 -58q10 -13 30 -14t42 14t35 44q0 -32 -15.5 -58.5t-38 -39.5t-47 -18t-45.5 2.5t-29 25.5q-13 27 -13.5 52.5t9.5 51t23 47.5t31 54.5t29 59.5q16 39 -22 37.5t-79 -29.5
q-7 -4 -11 -8zM696 691q21 0 37.5 -16t19.5 -38.5t-10 -38.5t-34 -16t-38 16t-19.5 38.5t10.5 38.5t34 16zM275 623h215v-68h-215v68zM275 486h215v-68h-215v68zM275 350h215v-68h-215v68zM275 213h215v-68h-215v68z" />
    <glyph glyph-name="uniE61F" unicode="&#xe61f;" 
d="M47 157q0 33 24.5 56.5t59 23.5t59 -23.5t24.5 -56.5t-24.5 -56.5t-59 -23.5t-59 23.5t-24.5 56.5zM992 266l-70 302h-235v-365h66q9 30 34.5 49t58 19t58 -19t33.5 -49h55h32v63h-32zM709 436v110l191 -2l27 -108h-218zM762 157q0 33 24.5 56.5t59 23.5t58.5 -23.5
t24 -56.5t-24 -56.5t-58.5 -23.5t-59 23.5t-24.5 56.5zM0 691v-488h39q8 30 33.5 49t58 19t58 -19t33.5 -49h433v488h-655zM593 272h-372q-2 0 -8 7t-14.5 15.5t-27 15.5t-42.5 7q-8 0 -15.5 -1t-13 -2t-11 -3t-9.5 -4t-7.5 -3.5t-6 -3.5t-4.5 -3t-2 -2l-1 -1v337h534v-359z
" />
    <glyph glyph-name="uniE620" unicode="&#xe620;" 
d="M869 804h-84v-83q22 -1 37 -15.5t15 -35.5v-664q0 -21 -15.5 -36t-37.5 -15h-544q-22 0 -37.5 15t-15.5 36v664q0 21 15.5 36t37.5 15h9v83h-94q-22 0 -37.5 -15t-15.5 -36v-830q0 -21 15.5 -36t37.5 -15h714q22 0 37.5 15t15.5 36v830q0 21 -15.5 36t-37.5 15zM701 835
h-115q0 25 -18.5 43t-45 18t-44.5 -18t-18 -43h-127q-21 0 -36.5 -15t-15.5 -37v-51q0 -21 15.5 -36t36.5 -15h368q22 0 37.5 15t15.5 36v51q0 22 -15.5 37t-37.5 15zM522.5 865q13.5 0 22.5 -9t9 -21h-63q0 12 9 21t22.5 9zM240 579h302v-72h-302v72zM240 343h302v-71h-302
v71zM240 118h302v-72h-302v72zM686 505l-14 -14l-57 56l14 14zM674 487l-14 14l99 98l14 -14zM686 44l-14 -14l-57 56l14 15zM674 26l-14 14l99 98l14 -14zM643 251l-14 14l98 98l14 -14zM626 349l14 14l98 -98l-14 -14z" />
    <glyph glyph-name="uniE621" unicode="&#xe621;" 
d="M102 896v-23v-204v-679l518 -118v793l-292 118h486v-816h-43l-87 -91h238v1020h-820zM534 -33l-345 91v679l345 -136v-634z" />
    <glyph glyph-name="uniE622" unicode="&#xe622;" 
d="M945 429h-48q-15 134 -110.5 229.5t-229.5 110.5v48q0 19 -13 32t-32 13t-32 -13t-13 -32v-48q-134 -15 -229.5 -110.5t-110.5 -229.5h-48q-19 0 -32 -13t-13 -32t13 -32t32 -13h48q15 -134 110.5 -229.5t229.5 -110.5v-48q0 -19 13 -32t32 -13t32 13t13 32v48
q134 15 229.5 110.5t110.5 229.5h48q19 0 32 13t13 32t-13 32t-32 13zM721 339h86q-15 -97 -84 -166t-166 -84v86q0 18 -13 31.5t-32 13.5t-32 -13.5t-13 -31.5v-86q-97 15 -166 84t-84 166h86q18 0 31.5 13t13.5 32t-13.5 32t-31.5 13h-86q15 97 84 166t166 84v-86
q0 -18 13 -31.5t32 -13.5t32 13.5t13 31.5v86q97 -15 166 -84t84 -166h-86q-18 0 -31.5 -13t-13.5 -32t13.5 -32t31.5 -13zM512 384zM467 384q0 19 13 32t32 13t32 -13t13 -32t-13 -32t-32 -13t-32 13t-13 32z" />
    <glyph glyph-name="uniE623" unicode="&#xe623;" 
d="M811 77q-3 98 -63.5 174.5t-152.5 103.5q2 1 5 3l4 2q13 7 23 15q9 7 21 18q15 16 26 33q5 8 11 19q0 1 1 2v1q18 38 18 79q0 80 -56.5 136t-135.5 56v0q-79 0 -135.5 -56t-56.5 -136q0 -56 30 -102t79 -70q-92 -27 -152.5 -103.5t-63.5 -174.5v-1v-2q0 -5 2 -10
q8 -15 24 -15q17 0 24 15q1 3 2 8v2v2v1v1v12q0 2 1 6h-1q12 104 96 169l1 1q2 0 2 1l1 -1q48 37 106 47h1h1q9 2 18 3h15q1 0 3 0.5t3 0.5q11 0 24 -2q87 -8 150 -70t73 -149h-1q2 -4 1 -6v-12v-1v-1v-2v-2q1 -5 2 -8q7 -15 24 -15q16 0 24 15q2 5 2 10v1v1v1zM371 527.5
q0 58.5 41.5 99.5t99.5 41t99.5 -41t41.5 -99.5t-41.5 -100t-99.5 -41.5t-99.5 41.5t-41.5 100zM512 -128q-104 0 -199 40.5t-163.5 109t-109 163.5t-40.5 199t40.5 199t109 163.5t163.5 109t199 40.5t199 -40.5t163.5 -109t109 -163.5t40.5 -199t-40.5 -199t-109 -163.5
t-163.5 -109t-199 -40.5zM512 833q-91 0 -174 -35.5t-143.5 -96t-96 -143.5t-35.5 -174t35.5 -174t96 -143.5t143.5 -96t174 -35.5t174 35.5t143.5 96t96 143.5t35.5 174t-35.5 174t-96 143.5t-143.5 96t-174 35.5z" />
    <glyph glyph-name="uniE624" unicode="&#xe624;" horiz-adv-x="1026" 
d="M731 12q-3 120 -77 213.5t-186 125.5q2 1 6 4l5 3q16 9 27 18q14 10 27 22q3 4 16.5 20.5t14.5 19.5q7 10 14 24l1 3q22 46 22 97q0 97 -68.5 165.5t-165.5 68.5h-1q-96 0 -165 -68.5t-69 -165.5q0 -68 36.5 -125t96.5 -86q-113 -32 -186.5 -125.5t-76.5 -213.5v-1l-1 -1
v-1q1 -7 4 -13q8 -18 28 -18q21 0 29 19q2 3 2 9q1 1 1 2v2q0 1 -1 2v2v14q0 2 2 7h-1q7 62 38 116t79 91q1 0 2 0.5t2 1.5l1 -1q59 45 130 57h1l1 1q13 2 22 2q7 1 19 1q1 0 3 0.5t3 0.5q14 0 30 -2q106 -10 183 -85.5t89 -182.5h-1q2 -4 2 -7q-1 -2 -1 -14v-2v-2v-2v-2
q1 -6 3 -9q8 -19 29 -19q20 0 28 18q3 6 4 13v1v1zM194 562q0 71 50.5 121.5t122 50.5t122 -50.5t50.5 -121.5t-50.5 -121.5t-122 -50.5t-122 50.5t-50.5 121.5zM1025 5q-4 119 -77.5 212.5t-185.5 126.5q59 29 95.5 85.5t36.5 124.5q0 97 -68.5 165.5t-164.5 68.5
q-12 -1 -20.5 -10t-8.5 -21t8.5 -20.5t20.5 -9.5v-1h1h1v0q70 -1 119.5 -51t49.5 -121q0 -66 -44.5 -119t-108.5 -62q-13 -2 -20 -10q-13 -11 -13 -28q0 -18 15 -30q11 -9 24 -9h1q10 -1 21 -3h2q72 -13 131 -58v1q1 0 2 -1l2 -1q49 -37 79.5 -90.5t37.5 -115.5q1 -6 1 -8
v-14v-2q-1 -1 -1 -1.5t1 -2.5v-1q0 -7 2 -10q9 -19 29 -19t29 19q3 5 3 12v1v2v1zM685 296z" />
    <glyph glyph-name="uniE625" unicode="&#xe625;" 
d="M978 301q-15 0 -25.5 -11t-10.5 -26q-27 -94 -90.5 -167t-151.5 -113v198h96q15 0 26 11t11 26t-11 26t-26 11h-96v201h279q15 0 25.5 10.5t10.5 25.5q0 3 -1 12t-1 10q0 3 -2 10q0 3 -1 6q-48 160 -183 262.5t-307 102.5q-104 0 -198.5 -40.5t-163 -109t-109.5 -163.5
t-41 -199q0 -86 30 -170q1 -8 5 -14q57 -146 187 -237t290 -91q130 0 241 61t181 165v-159q0 -15 10.5 -25.5t25.5 -10.5t26 10.5t11 25.5v324v1q0 7 -3 14q-9 23 -34 23zM627 256h-210v201h210v-201zM933 530h-233v254q81 -37 142 -103t91 -151zM520 823q55 0 107 -13v-280
h-210v280q52 13 103 13zM343 785v-255h-132q-15 0 -26 -11t-11 -26t11 -25.5t26 -10.5h132v-201h-242q-19 62 -19 128q0 132 72 240.5t189 160.5zM131 182h212v-199q-68 30 -122.5 81.5t-89.5 117.5zM417 -42v224h210v-224q-53 -13 -106 -13q-51 0 -104 13z" />
    <glyph glyph-name="uniE626" unicode="&#xe626;" 
d="M805 384q0 -22 -17 -37l-167 -147q-15 -13 -34 -13q-21 0 -35.5 14.5t-14.5 34.5q0 22 16 37l71 62h-305q-21 0 -36 14.5t-15 34.5t15 34.5t36 14.5h305l-71 62q-16 15 -16 37q0 20 14.5 34.5t35.5 14.5q19 0 34 -13l167 -147q17 -15 17 -37zM922 548q-1 31 -2 91t2 73
h-821v-656h827q0 -6 -1 21.5t-2 72.5t-1.5 67t-1.5 36q3 17 4.5 22t6.5 13.5t14 11t26 2.5q45 0 50 -49q2 -214 0 -246q-1 -17 -19.5 -29t-38.5 -16.5t-37 -4.5h-878q-21 0 -35.5 14.5t-14.5 35.5v754q0 21 14.5 35.5t35.5 14.5h884q67 0 89 -33q-2 -3 -2 -60t1 -114l1 -56
q4 -31 -11.5 -48.5t-38.5 -17.5q-47 0 -51 66z" />
    <glyph glyph-name="uniE627" unicode="&#xe627;" 
d="M984 463h-47q-16 0 -31 11t-20 27l-27 66q-8 14 -5 32.5t14 29.5l34 34q11 11 11 27.5t-11 27.5l-56 56q-12 11 -28 11t-28 -11l-33 -34q-12 -11 -30 -14t-33 5l-66 27q-15 5 -26 20t-11 31v48q0 16 -11.5 27.5t-28.5 11.5h-78q-17 0 -28.5 -11.5t-11.5 -27.5v-48
q0 -16 -11 -31t-26 -20l-66 -27q-15 -7 -33 -4.5t-30 13.5l-33 34q-12 11 -28.5 11t-27.5 -11l-56 -56q-11 -11 -11 -27.5t11 -27.5l34 -34q11 -11 14 -29.5t-5 -32.5l-27 -66q-5 -16 -20 -27t-31 -11h-47q-17 0 -28.5 -11.5t-11.5 -27.5v-79q0 -16 11.5 -28t28.5 -12h47
q16 0 31 -11t20 -26l27 -66q8 -14 5 -32.5t-14 -30.5l-34 -33q-11 -12 -11 -28t11 -28l56 -56q11 -11 27.5 -11t28.5 11l33 34q12 11 30 14t33 -5l66 -27q15 -5 26 -20t11 -31v-47q0 -16 11.5 -28t28.5 -12h78q17 0 28.5 12t11.5 28v47q0 16 11 31t26 20l66 27q15 8 33 5
t30 -14l33 -34q12 -11 28.5 -11t27.5 11l56 56q11 12 11 28t-11 28l-34 33q-11 12 -14 30.5t5 32.5l27 66q5 15 20 26t31 11h48q16 0 27.5 12t11.5 28v79q0 16 -11.5 27.5t-28.5 11.5zM512.5 187q-81.5 0 -139.5 58t-58 139.5t58 139t139.5 57.5t139 -57.5t57.5 -139
t-57.5 -139.5t-139 -58z" />
    <glyph glyph-name="uniE628" unicode="&#xe628;" horiz-adv-x="3920" 
d="M1283 784h-231l-29 -133h180q108 0 144 -56.5t12 -174.5l-14 -67q-4 -11 -17 -12.5t-26 10.5q-18 16 -39.5 28t-41.5 20.5t-56 15t-61 10t-79 6t-88.5 3.5t-109.5 3q-52 2 -81 3q-64 1 -118.5 11t-94 25t-72 35t-53 42.5t-37 47t-23 48.5t-12 47.5t-3.5 43.5t2 36h-197
l-122 -563q-84 -341 281 -335h415q24 0 42 16.5t27 45.5q3 8 25.5 110.5t44.5 200.5l22 98q-39 4 -74 4q-79 0 -139 -12l-77 -342h-185q-119 -3 -161 54.5t-14 176.5q46 213 49 224q2 11 10.5 13.5t14.5 -3.5q13 -11 23.5 -20t30 -22t38 -22t46 -18t55.5 -13.5t64.5 -4.5
t75.5 5q103 17 184.5 12t145 -22t109.5 -48.5t78.5 -67.5t53 -78.5t31 -82.5t13.5 -79.5t1 -69t-8 -51.5h213l124 561q79 347 -292 341zM899 470l94 426l-211 -1l-92 -420q36 -1 55 -2zM1964 194v67h58v-67h144v-214h-58v27h-86v-120h-58v120h-87v-27h-56v214h143zM1877 60
h87v81h-87v-81zM2108 141h-86v-81h86v81zM2389 -70l-9 50q11 0 21 3v211h-17v46h165v-46h-16v-192q10 4 22 5q-2 -12 -3 -34q-2 -10 -2 -16q-7 0 -17 -3v-65h-47v57q-5 -1 -19 -3q-21 -5 -78 -13zM2446 155h40v38h-40v-38zM2446 74h40v40h-40v-40zM2486 -6v38h-40v-44
q6 1 21 3q12 3 19 3zM2562 240l38 21q20 -24 39 -56l-37 -18h51q23 38 39 75l50 -21q-20 -29 -34 -54h39v-45h-76v-52h89v-45h-79q22 -75 82 -108q-16 -19 -31 -48q-58 44 -80 124q-16 -78 -79 -126q-18 22 -37 43q63 37 80 115h-69v45h74v9q2 23 2 43h-66v45h37
q-3 4 -10 16q-14 25 -22 37zM3082 10v-121h-49v113l-27 -6q-21 -4 -32 -7l-7 56q8 1 55 6q8 2 11 2v77h-24q-2 -12 -6 -29q-1 -4 -3 -12.5t-2 -11.5q-2 2 -5 3q-13 10 -27 15q14 58 19 132l34 -3q0 -14 -3 -43q1 7 1 9l-1 -12h17v79h49v-79h29v-15q26 50 40 98q31 -6 51 -10
q-6 -15 -19 -45q-2 -3 -2 -5h152q0 -98 -5 -234q-2 -65 -56 -65q-25 -2 -57 -2q-5 30 -13 49q-27 -28 -64 -57q-25 26 -40 38q120 77 135 220h-15q-13 -87 -89 -152q-12 10 -18 17q-15 -2 -29 -5zM3122 98q-8 12 -21 29q-3 1 -3 3h-16v-69q16 3 35 5q-2 -8 -2 -18
q47 45 62 102h-18q-18 -30 -37 -52zM3249 -51q31 0 31 34q3 56 6 158q-1 -69 0 9h-10q0 -108 -72 -199q10 0 24 -2h21zM3536 119l34 36q37 -25 63 -49l-35 -40q-24 24 -62 53zM3581 53q13 -6 39 -16q7 -2 11 -5q-5 -17 -9 -33q-7 -25 -17.5 -61t-13.5 -48q-5 2 -22 8
q-15 5 -29 10q22 61 41 145zM3543 222l32 34q30 -22 63 -50l-36 -38q-32 34 -59 54zM3667 63h48v-40q2 -93 -61 -136q-9 11 -34 34q19 -17 -3 1q50 32 50 112v29zM3641 174v47h97q-2 3 -5 11q-2 4 -10 19l58 10l3 -5l3 -7l4 -8q5 -12 10 -20h101v-47h-129q-8 -8 -26 -27
q-14 -16 -25 -27q16 2 50 2q32 1 49 1q-9 13 -19 23l42 27q43 -46 72 -83l-45 -30q-2 5 -13 19l-3 3q-155 -5 -201 -11l-16 43q27 8 67 60h-64zM3736 63h48v-166h-48v166zM3881 12q7 -2 19 -7q11 -3 18 -6q-1 -32 -6 -67q-5 -40 -49 -40h-13q-43 0 -45 45v127h50v-121
q0 -11 8 -11h4q8 0 9 13q2 17 3 44q2 15 2 23zM2280 272h10v-400h-10v400zM2860 272h10v-400h-10v400zM3430 272h10v-400h-10v400zM2080 483q0 -8 -3.5 -11.5t-9.5 -3.5h-59q-47 -1 -66.5 14t-18.5 61v228h-128v-236q-5 -161 171 -156h239v392h-125v-288zM2514 771h-240
v-392h125v288q0 9 3.5 12t9.5 3h59q47 2 66.5 -13.5t18.5 -60.5v-229h128v236q3 81 -40 120t-130 36zM3509 688h400q-6 19 -18 33h-382v-33zM3790 635h129q-1 17 -4 33h-142q13 -11 17 -33zM3791 402h128v-23h-128v23zM3749 771h-240v-30h362q-43 33 -122 30zM3509 455h125
v-33h-125v33zM3791 562h128v-34h-128v34zM3791 608v-26h128v33h-128v-7zM3509 402h125v-23h-125v23zM3509 562h125v-34h-125v34zM3791 509h128v-34h-128v34zM3509 615h125v-33h-125v33zM3791 455h128v-33h-128v33zM3634 635v32v1h-125v-33h125zM3509 509h125v-34h-125v34z
M2885 543v228h-128v-236q-2 -80 40.5 -119t130.5 -37h99v89h-57q-47 -1 -66.5 14t-18.5 61zM3178 509h-114q6 -18 15 -34h153q-33 8 -54 34zM3420 455h-328q13 -18 30 -33h268q17 15 30 33zM3256 779q-65 0 -118 -38h236q-53 38 -118 38zM3334 642q4 -4 10 -7h106
q-5 17 -13 33h-137q20 -9 34 -26zM3334 509q-22 -26 -54 -34h153q9 16 15 34h-114zM3154 562h-101q1 -17 5 -34h106q-8 16 -10 34zM3212 668h-137q-9 -16 -14 -33h111q16 22 40 33zM3397 721h-283q-16 -15 -28 -33h339q-12 18 -28 33zM3256 372q58 0 107 30h-214
q49 -30 107 -30zM3161 615h-105q-3 -16 -3 -33h100q1 17 8 33z" />
    <glyph glyph-name="uniE629" unicode="&#xe629;" horiz-adv-x="1120" 
d="M297 809q-7 0 -12 -5.5t-5 -12.5t5 -12.5t12 -5.5l542 -1q8 0 13 5.5t5 12.5t-5 12.5t-13 5.5zM1058 808h-96q-7 0 -12.5 -5.5t-5.5 -12.5t5.5 -12.5t12.5 -5.5h96q11 0 18.5 -7.5t7.5 -18.5v-150h-1049v159q0 17 30 17h92q8 0 13 5.5t5 12.5t-5 12.5t-13 5.5h-92
q-29 0 -47 -15t-18 -38v-830q0 -24 18 -38.5t47 -14.5h993q25 0 43 18t18 44v812q0 26 -18 44t-43 18zM1084 -66q0 -11 -7.5 -19t-18.5 -8h-993q-30 0 -30 18v636h1049v-627zM245 719v159q0 8 -5 13t-12.5 5t-12.5 -5t-5 -13v-159q0 -7 5 -12t12.5 -5t12.5 5t5 12zM892 878
v-159q0 -7 5 -12t12.5 -5t12.5 5t5 12v159q0 8 -5 13t-12.5 5t-12.5 -5t-5 -13zM149 437q-8 0 -13 -5t-5 -12.5t5 -12.5t13 -5h192q7 0 12 5t5 12.5t-5 12.5t-12 5h-192zM463 437q-7 0 -12 -5t-5 -12.5t5 -12.5t12 -5h193q7 0 12 5t5 12.5t-5 12.5t-12 5h-193zM778 437
q-7 0 -12 -5t-5 -12.5t5 -12.5t12 -5h193q7 0 12 5t5 12.5t-5 12.5t-12 5h-193zM149 260q-8 0 -13 -5t-5 -12.5t5 -12.5t13 -5h192q7 0 12 5t5 12.5t-5 12.5t-12 5h-192zM463 260q-7 0 -12 -5t-5 -12.5t5 -12.5t12 -5h193q7 0 12 5t5 12.5t-5 12.5t-12 5h-193zM778 260
q-7 0 -12 -5t-5 -12.5t5 -12.5t12 -5h193q7 0 12 5t5 12.5t-5 12.5t-12 5h-193zM149 84q-8 0 -13 -5t-5 -12.5t5 -12.5t13 -5h192q7 0 12 5t5 12.5t-5 12.5t-12 5h-192zM463 84q-7 0 -12 -5t-5 -12.5t5 -12.5t12 -5h193q7 0 12 5t5 12.5t-5 12.5t-12 5h-193zM778 84
q-7 0 -12 -5t-5 -12.5t5 -12.5t12 -5h193q7 0 12 5t5 12.5t-5 12.5t-12 5h-193z" />
    <glyph glyph-name="uniE62B" unicode="&#xe62b;" 
d="M585 384l321 321q16 15 16 36.5t-15.5 37t-37 15.5t-36.5 -16l-321 -321l-322 322q-15 15 -36 15t-36 -15t-15 -36.5t15 -36.5l321 -321l-321 -321q-15 -15 -15 -36.5t15.5 -37t37 -15.5t36.5 15l321 321l321 -321q15 -15 36.5 -15t36.5 15t15 36t-15 36z" />
  </font>
</defs>
</svg>
